<svg xmlns="http://www.w3.org/2000/svg" viewBox="0 0 404 404"><path fill="#f6b94c" d="m21.963 402.378 373.648-186.806c11.185-5.592 11.185-21.553 0-27.145L21.963 1.622C11.872-3.423 0 3.914 0 15.194v373.612c0 11.28 11.872 18.617 21.963 13.572z"/><path fill="#52c1ff" d="M5.068 3.875C2.007 6.593 0 10.559 0 15.194v373.612c0 4.635 2.007 8.601 5.068 11.319L203.193 202 5.068 3.875z"/><path fill="#67c7a5" d="M276.377 128.816 21.963 1.622C16.018-1.35 9.458-.022 5.068 3.875L203.193 202l73.184-73.184z"/><path fill="#f56c61" d="M5.068 400.125c4.39 3.897 10.95 5.225 16.895 2.253l254.414-127.195L203.193 202 5.068 400.125z"/></svg>